# AST/ASF file generated using VICON BodyLanguage
# -----------------------------------------------
:version 1.10
:name VICON
:units
  mass 1.0
  length 0.45
  angle deg
:documentation
   .ast/.asf automatically generated from VICON data using
   VICON BodyBuilder and BodyLanguage model FoxedUp or BRILLIANT.MOD
:root
   order TX TY TZ RX RY RZ
   axis XYZ
   position 0 0 0  
   orientation 0 0 0 
:bonedata
  begin
     id 1 
     name lhipjoint
     direction 0.603808 -0.713975 0.35448 
     length 2.2025 
     axis 0 0 0  XYZ
  end
  begin
     id 2 
     name lfemur
     direction 0.34202 -0.939693 0  
     length 6.55877  
     axis 0 0 20  XYZ
    dof rx ry rz
    limits (-160.0 20.0)
           (-70.0 70.0)
           (-60.0 70.0)
  end
  begin
     id 3 
     name ltibia
     direction 0.34202 -0.939693 0   
     length 6.80302   
     axis 0 0 20   XYZ
    dof rx
    limits (-10.0 170.0)
  end
  begin
     id 4 
     name lfoot
     direction 0.091848 -0.25235 0.963267   
     length 2.03446   
     axis -90 7.62852e-016 20   XYZ
    dof rx rz
    limits (-45.0 90.0)
           (-70.0 20.0)
  end
  begin
     id 5 
     name ltoes
     direction 1.53608e-011 -4.21925e-011 1   
     length 1.02033   
     axis -90 7.62852e-016 20   XYZ
    dof rx
    limits (-90.0 20.0)
  end
  begin
     id 6 
     name rhipjoint
     direction -0.587285 -0.724947 0.359928   
     length 2.16916  
     axis 0 0 0  XYZ 
  end
  begin
     id 7 
     name rfemur
     direction -0.34202 -0.939693 0   
     length 6.43173   
     axis 0 0 -20   XYZ
    dof rx ry rz
    limits (-160.0 20.0)
           (-70.0 70.0)
           (-70.0 60.0)
  end
  begin
     id 8 
     name rtibia
     direction -0.34202 -0.939693 0   
     length 6.70662   
     axis 0 0 -20   XYZ
    dof rx
    limits (-10.0 170.0)
 end
 begin
     id 9 
     name rfoot
     direction -0.11854 -0.325686 0.938018   
     length 2.0773  
     axis -90 -7.62852e-016 -20   XYZ
    dof rx rz
    limits (-45.0 90.0)
           (-20.0 70.0)
  end
  begin
     id 10 
     name rtoes
     direction -1.53547e-011 -4.21838e-011 1   
     length 1.03267   
     axis -90 -7.62852e-016 -20   XYZ
    dof rx
    limits (-90.0 20.0)
  end
  begin
     id 11 
     name lowerback
     direction -0.0286554 0.999539 0.0100613   
     length 2.08751   
     axis 0 0 0   XYZ
    dof rx ry rz
    limits (-20.0 45.0)
           (-30.0 30.0)
           (-30.0 30.0)
  end
  begin
     id 12 
     name upperback
     direction 0.0227093 0.999705 -0.00860929   
     length 2.08517   
     axis 0 0 0   XYZ
    dof rx ry rz
    limits (-20.0 45.0)
           (-30.0 30.0)
           (-30.0 30.0)
  end
  begin
     id 13 
     name thorax
     direction 0.0351627 0.999285 -0.013892   
     length 2.08412   
     axis 0 0 0   XYZ
    dof rx ry rz
    limits (-20.0 45.0)
           (-30.0 30.0)
           (-30.0 30.0)
  end
  begin
     id 14 
     name lowerneck
     direction -0.0696283 0.997344 0.0213922   
     length 1.44164   
     axis 0 0 0   XYZ
    dof rx ry rz
    limits (-20.0 45.0)
           (-30.0 30.0)
           (-30.0 30.0)
  end
  begin
     id 15 
     name upperneck
     direction 0.0531 0.990412 -0.127531   
     length 1.45022   
     axis 0 0 0   XYZ
    dof rx ry rz
    limits (-20.0 45.0)
           (-30.0 30.0)
           (-30.0 30.0)
  end
  begin
     id 16
     name head
     direction 0.0188154 0.998548 -0.0504727  
     length 1.45845  
     axis 0 0 0   XYZ
    dof rx ry rz
    limits (-20.0 45.0)
           (-30.0 30.0)
           (-30.0 30.0)
  end
  begin
     id 17 
     name lclavicle
     direction 0.961559 0.260051 0.088188  
     length 2.86057  
     axis 0 0 0   XYZ
    dof ry rz
    limits (-20.0 10.0)
           (0.0 20.0)
  end
  begin
     id 18 
     name lhumerus
     direction 1 -4.48959e-011 2.88185e-027   
     length 4.36901   
     axis 180 -30 -90   XYZ
    dof rx ry rz
    limits (-60.0 90.0)
           (-90.0 90.0)
           (-90.0 90.0)
  end
  begin
     id 19
     name lradius
     direction 1 -4.48965e-011 -3.92618e-028   
     length 3.21737   
     axis 180 -30 -90   XYZ
    dof rx
    limits (-10.0 170.0)
  end
  begin
     id 20
     name lwrist
     direction 1 -4.49037e-011 2.57246e-027   
     length 1.60869   
     axis -1.61769e-015 90 90   XYZ
    dof ry
    limits (-180.0 0.0)
 end
  begin
     id 21 
     name lhand
     direction 1 -4.48807e-011 5.12958e-027   
     length 0.564313   
     axis -3.27988e-015 90 90   XYZ
    dof rx rz
    limits (-90.0 90.0)
           (-45.0 45.0)
  end
  begin
     id 22 
     name lfingers
     direction 1 -4.48879e-011 1.02687e-026   
     length 0.454963   
     axis -6.5598e-015 90 90   XYZ
    dof rx
    limits (0.0 90.0)
  end
  begin
     id 23
     name lthumb
     direction 0.707107 -6.3475e-011 0.707107   
     length 0.653239   
     axis -90 45 2.19363e-014   XYZ
    dof rx rz
    limits (-45.0 45.0)
           (-45.0 45.0)
  end
  begin
     id 24 
     name rclavicle
     direction -0.954677 0.253915 0.155304   
     length 3.11497  
     axis 0 0 0   XYZ 
    dof ry rz
    limits (-10.0 20.0)
           (-20.0 0.0)
  end
  begin
     id 25 
     name rhumerus
     direction -1 -4.48958e-011 -8.20169e-028  
     length 4.34118   
     axis 180 30 90   XYZ
    dof rx ry rz
    limits (-90.0 60.0)
           (-90.0 90.0)
           (-90.0 90.0)
  end
  begin
     id 26 
     name rradius
     direction -1 -4.48978e-011 1.5676e-027   
     length 3.09531   
     axis 180 30 90   XYZ
    dof rx
    limits (-10.0 170.0)
  end
  begin
     id 27 
     name rwrist
     direction -1 -4.49001e-011 2.57123e-027   
     length 1.54765   
     axis -1.61769e-015 -90 -90   XYZ
    dof ry
    limits (-180.0 0.0)
  end
  begin
     id 28
     name rhand
     direction -1 -4.48847e-011 5.13225e-027   
     length 0.597446   
     axis -3.27988e-015 -90 -90   XYZ
    dof rx rz
    limits (-90.0 90.0)
           (-45.0 45.0)
  end
  begin
     id 29
     name rfingers
     direction -1 -4.49094e-011 1.02974e-026   
     length 0.481677   
     axis -6.5598e-015 -90 -90   XYZ
    dof rx
    limits (0.0 90.0)
  end
  begin
     id 30
     name rthumb
     direction -0.707107 -6.34859e-011 0.707107   
     length 0.691594   
     axis -90 -45 -2.19363e-014   XYZ
    dof rx rz
    limits (-45.0 45.0)
           (-45.0 45.0)
  end
:hierarchy
  begin
    root lhipjoint rhipjoint lowerback
    lhipjoint lfemur
    lfemur ltibia
    ltibia lfoot
    lfoot ltoes
    rhipjoint rfemur
    rfemur rtibia
    rtibia rfoot
    rfoot rtoes
    lowerback upperback
    upperback thorax
    thorax lowerneck lclavicle rclavicle
    lowerneck upperneck
    upperneck head
    lclavicle lhumerus
    lhumerus lradius
    lradius lwrist
    lwrist lhand lthumb
    lhand lfingers
    rclavicle rhumerus
    rhumerus rradius
    rradius rwrist
    rwrist rhand rthumb
    rhand rfingers
  end

#!OML:ASF I:\Acrobat_Osman\acrobat\cartwheel_test 2\Patient 1\Session 1\acrobat.ASF
:FULLY-SPECIFIED
:DEGREES
173
root 6.16793 15.247 11.698 15.442 -5.02431 1.80964
lowerback 3.64279 -3.30575 1.42404
upperback 2.96981 -4.3829 3.42013
thorax 1.17809 -2.20403 2.82556
lowerneck -6.09752 5.11377 -0.144558
upperneck 4.62437 6.88681 -0.751769
head 2.53802 3.39886 0.0643186
rclavicle -1.47101e-014 6.83819e-014
rhumerus -49.0059 4.49089 -49.1485
rradius 33.9589
rwrist -6.26371
rhand -14.9688 19.433
rfingers 7.12502
rthumb 11.1948 -10.2483
lclavicle -1.47101e-014 6.83819e-014
lhumerus 0.416555 -35.499 74.8224
lradius 86.6452
lwrist 26.1262
lhand -19.3529 42.9118
lfingers 7.12502
lthumb 6.96454 72.7772
rfemur -52.1795 11.6011 8.52722
rtibia 43.5634
rfoot -4.9814 3.01569
rtoes -12.5636
lfemur -28.7836 27.8606 -13.195
ltibia 81.315
lfoot -4.40211 -14.3694
ltoes -29.9688
174
root 6.19233 15.3301 11.7332 15.1266 -4.73055 1.70598
lowerback 4.18856 -3.30546 1.40065
upperback 3.28055 -4.37179 3.21897
thorax 1.17944 -2.19726 2.65555
lowerneck -6.39256 4.62979 -0.827035
upperneck 5.5976 6.25676 0.0750047
head 2.86689 3.091 0.442194
rclavicle 2.06736e-014 0
rhumerus -49.9108 3.46122 -46.9664
rradius 32.2349
rwrist -4.81857
rhand -14.4151 19.671
rfingers 7.12502
rthumb 11.7288 -9.98065
lclavicle 2.06736e-014 0
lhumerus 1.17214 -33.643 73.5455
lradius 84.1985
lwrist 25.151
lhand -20.1409 43.7598
lfingers 7.12502
lthumb 6.20374 73.6489
rfemur -51.4674 10.7675 9.07519
rtibia 43.253
rfoot -3.56697 2.9533
rtoes -12.188
lfemur -32.3062 29.8233 -13.4231
ltibia 80.7402
lfoot -6.65697 -13.8876
ltoes -31.9427
175
root 6.2136 15.4041 11.7611 14.8309 -4.39193 1.62074
lowerback 4.86462 -3.37468 1.12439
upperback 3.58941 -4.45852 3.10101
thorax 1.13681 -2.2455 2.72337
lowerneck -6.82045 4.22442 -1.39341
upperneck 6.62552 5.7303 0.727133
head 3.26607 2.83174 0.758847
rclavicle 2.66371e-014 -2.62396e-014
rhumerus -50.6479 2.50709 -45.0042
rradius 30.6675
rwrist -3.03673
rhand -14.2328 19.1002
rfingers 7.12502
rthumb 11.9046 -10.5414
lclavicle 2.66371e-014 -2.62396e-014
lhumerus 1.86375 -31.9511 72.8061
lradius 81.1585
lwrist 23.6322
lhand -22.6224 43.2628
lfingers 7.12502
lthumb 3.80773 73.2086
rfemur -50.9314 9.72099 9.72218
rtibia 43.3859
rfoot -2.74816 2.69937
rtoes -12.7524
lfemur -35.6746 30.9165 -13.622
ltibia 79.2185
lfoot -7.49743 -13.2926
ltoes -29.9623
176
root 6.23012 15.4539 11.7786 14.6366 -4.08081 1.69342
lowerback 5.53528 -3.45537 0.492804
upperback 3.91877 -4.57977 2.97162
thorax 1.14868 -2.31902 2.97816
lowerneck -7.45298 3.81489 -1.88713
upperneck 7.54527 5.20108 1.26571
head 3.68886 2.57078 1.03334
rclavicle -2.74323e-014 1.03368e-014
rhumerus -51.3045 1.53374 -43.3407
rradius 29.4032
rwrist -1.39918
rhand -14.6356 18.5721
rfingers 7.12502
rthumb 11.5162 -11.0916
lclavicle -2.74323e-014 1.03368e-014
lhumerus 2.43911 -31.4097 72.4585
lradius 78.1916
lwrist 25.0084
lhand -24.2226 45.59
lfingers 7.12502
lthumb 2.26239 75.5577
rfemur -50.8044 8.38497 10.3593
rtibia 44.1596
rfoot -2.76669 2.69828
rtoes -15.4555
lfemur -38.9594 31.4366 -14.1165
ltibia 76.9421
lfoot -8.63483 -11.9005
ltoes -29.3932
177
root 6.2515 15.4656 11.7899 14.5904 -3.91866 1.93997
lowerback 6.11533 -3.50936 -0.354885
upperback 4.20263 -4.68326 2.75381
thorax 1.17639 -2.38816 3.25821
lowerneck -7.93262 3.41526 -2.21682
upperneck 8.15743 4.67537 1.66958
head 3.99371 2.3145 1.22491
rclavicle -3.35946e-014 -2.78299e-015
rhumerus -52.0217 0.595267 -41.9857
rradius 28.4577
rwrist -0.58866
rhand -14.8356 18.371
rfingers 7.12502
rthumb 11.3233 -11.3033
lclavicle -3.35946e-014 -2.78299e-015
lhumerus 2.68874 -30.2302 72.601
lradius 74.7798
lwrist 23.7298
lhand -24.0464 47.2691
lfingers 7.12502
lthumb 2.4325 77.235
rfemur -51.2906 6.69281 10.9732
rtibia 45.3856
rfoot -2.17746 2.37309
rtoes -13.4457
lfemur -42.1071 31.3732 -14.7405
ltibia 74.0355
lfoot -9.76882 -10.1605
ltoes -28.322
